<svg width="154" height="157" viewBox="0 0 154 157" fill="none" xmlns="http://www.w3.org/2000/svg">
<path d="M77 156.2C119.526 156.2 154 121.412 154 78.4998C154 35.5873 119.526 0.799805 77 0.799805C34.4741 0.799805 0 35.5873 0 78.4998C0 121.412 34.4741 156.2 77 156.2Z" fill="#F0DC20"/>
<path d="M76.9981 145.769C40.2581 145.769 10.5581 115.577 10.5581 78.725C10.5581 41.873 40.2581 11.459 76.9981 11.459C113.738 11.459 143.438 41.651 143.438 78.503C143.438 115.355 113.738 145.769 76.9981 145.769ZM76.9981 20.339C45.0981 20.339 19.3581 46.535 19.3581 78.503C19.3581 110.693 45.3181 136.667 76.9981 136.667C108.678 136.667 134.638 110.471 134.638 78.503C134.858 46.535 108.898 20.339 76.9981 20.339Z" fill="black"/>
<path d="M58.2537 47.2632C58.2537 47.2632 30.5337 61.0272 57.8137 79.8972C57.8137 79.8972 80.4737 97.2132 102.034 79.0092C102.034 79.0092 124.914 58.3632 98.9537 48.3732L98.7337 63.2472C98.7337 63.2472 83.7737 79.8972 58.4737 63.4692L58.2537 47.2632Z" fill="black"/>
<path d="M60.0138 55.0306C64.6338 58.5826 79.5938 68.7946 96.7538 56.3626C97.6338 55.6966 98.2938 54.5866 98.2938 53.4766V42.8206C98.5138 41.4886 98.0738 39.9346 96.9738 39.0466C94.3338 36.8266 87.2938 33.4966 81.7938 37.4926C80.2538 38.1586 78.7138 38.1586 77.1738 37.2706C74.0938 35.2726 69.2538 33.2746 60.4538 38.3806C59.3538 39.0466 58.6938 40.1566 58.6938 41.4886V52.1446C58.6938 53.2546 59.1338 54.3646 60.0138 55.0306Z" fill="black"/>
<path d="M21.1212 100.252C31.2412 97.588 41.5812 95.368 51.9212 94.036C52.5812 94.036 53.2412 93.592 53.4612 93.148L56.7612 88.486C56.7612 88.486 58.3012 87.598 58.0812 89.152C56.5412 91.15 55.6612 93.592 55.8812 96.256C55.8812 96.7 55.8812 96.922 56.1012 97.144L69.0812 124.894C69.3012 125.338 69.7412 125.338 69.9612 125.338C70.1812 125.338 70.4012 125.116 70.4012 124.894L73.7012 109.354C73.9212 108.688 73.7012 108.022 73.2612 107.356C72.1612 105.802 70.6212 102.916 77.2212 102.916C77.2212 102.916 84.7012 102.472 81.4012 107.134C81.1812 107.578 80.9612 108.244 80.9612 108.688L82.5012 125.56C82.5012 125.782 82.7212 126.004 83.1612 126.004C83.3812 126.004 83.6012 125.782 83.6012 125.782L99.4412 99.364C99.6612 98.92 99.8812 98.476 99.8812 97.81C99.6612 96.034 99.4412 94.258 98.7812 92.482C98.5612 92.038 98.5612 91.816 98.1212 91.594C97.9012 91.372 97.6812 90.928 98.5612 90.928C99.8812 92.26 101.201 93.814 102.081 95.59C102.301 96.256 102.961 96.7 103.621 96.7C108.021 97.81 124.521 101.584 130.681 104.248C131.781 104.692 132.441 106.024 132.001 107.134L127.601 118.012C127.381 118.456 127.161 118.9 126.721 119.122L106.041 132.886L105.601 133.108L81.6212 142.654C81.1812 142.876 80.7412 142.876 80.3012 142.876L53.6812 137.326C53.4612 137.326 53.2412 137.104 53.0212 137.104L33.8812 125.116C33.6612 124.894 33.2212 124.672 33.2212 124.45L19.8012 103.36C19.8012 103.36 19.8012 103.138 19.5812 103.138L18.2612 100.252H21.1212Z" fill="black"/>
<path d="M99.4378 82.5001L98.7778 86.2741C98.7778 86.7181 98.5578 87.3841 98.3378 87.8281L96.3578 90.0481L86.8978 99.5941C86.0178 100.482 84.6978 100.926 83.3778 100.926L72.5978 100.482C71.2778 100.482 69.9578 99.8162 69.0778 98.7062L57.6378 85.3861C57.1978 84.7201 57.1978 84.0541 57.1978 83.1661L57.4178 81.6121V81.3901C59.6178 82.7221 78.9778 98.7062 99.2178 82.2781L99.4378 82.5001Z" fill="black"/>
</svg>
