<svg width="117" height="25" viewBox="0 0 117 25" fill="none" xmlns="http://www.w3.org/2000/svg">
<path d="M22.5098 5.46411H115.273C115.273 5.46411 117.397 5.57125 116.724 7.53553L112.265 17.4641C112.265 17.4641 111.628 18.6783 109.752 18.6069C107.876 18.5355 23.5715 18.5712 23.076 18.5712L22.5098 5.46411Z" fill="#F0DC20"/>
<path d="M12.3873 24.9999C19.2287 24.9999 24.7747 19.4035 24.7747 12.4999C24.7747 5.59642 19.2287 0 12.3873 0C5.546 0 0 5.59642 0 12.4999C0 19.4035 5.546 24.9999 12.3873 24.9999Z" fill="#F0DC20"/>
<path d="M32.2775 16.5363H25.5176L30.2602 7.03638H36.9847C37.9403 7.03638 38.4712 7.46495 38.4712 8.07209C38.4712 8.28637 38.4004 8.46494 38.2942 8.64351L37.0201 11.1435C36.737 11.7149 36.4184 11.8935 35.6398 11.8935H35.569C35.8875 12.0364 36.0999 12.3935 36.0999 12.7506C36.0999 12.9649 36.0291 13.1792 35.9229 13.3578L35.0381 15.1078C34.4719 16.2863 33.7286 16.5363 32.2775 16.5363ZM32.5253 13.1792C32.5607 13.1078 32.5607 13.0721 32.5607 13.0006C32.5253 12.7149 32.2775 12.5364 31.9944 12.5364H31.1096L30.1894 14.4292H31.9236L32.5253 13.1792ZM33.8348 10.6078L34.2595 9.71494C34.2949 9.64351 34.2949 9.60779 34.2949 9.53637C34.2949 9.28637 34.0825 9.07208 33.7286 9.07208H32.8084L32.0652 10.6078H33.8348Z" fill="black"/>
<path d="M45.7255 15.143C45.1592 16.2858 44.416 16.5358 42.9295 16.5358H38.2931C37.3375 16.5358 36.8066 16.1073 36.8066 15.5001C36.8066 15.2859 36.8774 15.0716 36.9836 14.893L40.2043 8.42874C40.806 7.25017 41.5138 7.03589 43.0003 7.03589H47.6367C48.5923 7.03589 49.1232 7.46446 49.1232 8.0716C49.1232 8.28588 49.0524 8.50017 48.9462 8.67874L45.7255 15.143ZM44.8407 9.53588C44.8407 9.28588 44.6284 9.10731 44.239 9.10731C43.8143 9.07159 43.3896 9.32159 43.2127 9.71445L41.1953 13.7859C41.1599 13.8573 41.1245 13.9644 41.1245 14.0359C41.1245 14.2859 41.3369 14.4287 41.797 14.4287C42.1863 14.4287 42.5756 14.2144 42.7172 13.8216L44.7699 9.75016C44.8407 9.67873 44.8407 9.60731 44.8407 9.53588Z" fill="black"/>
<path d="M56.6982 9.10773H54.1854C53.6545 9.10773 53.4067 9.14344 53.2652 9.42915L53.1236 9.67915C53.0882 9.75058 53.0528 9.82201 53.0528 9.89344C53.0528 10.2149 53.6545 10.2863 54.7516 10.6434C55.9904 11.0363 56.6982 11.3577 56.6982 12.1077C56.6628 12.4291 56.592 12.7149 56.4505 13.0006L55.4949 14.9648C54.8224 16.3934 53.8314 16.5006 51.7433 16.5006H46.8945L47.9209 14.4291H51.2478C52.168 14.4291 52.5927 14.4291 52.8405 13.822L53.0882 13.322C53.159 13.2149 53.1944 13.072 53.1944 12.9649C53.1944 12.5363 52.6281 12.4291 51.6017 12.1077C50.2922 11.6791 49.6551 11.4649 49.6551 10.822C49.6551 10.5363 49.7613 10.2506 49.9029 9.96487L50.8231 8.10773C51.2478 7.21488 52.0264 7.07202 53.3713 7.07202H57.7954L56.6982 9.10773Z" fill="black"/>
<path d="M65.9368 9.1071H63.4239C62.893 9.1071 62.6453 9.14281 62.5037 9.42853L62.3621 9.67853C62.3267 9.74995 62.2913 9.82138 62.2913 9.92852C62.2913 10.25 62.893 10.3214 63.9902 10.6785C65.2289 11.0714 65.9368 11.3928 65.9368 12.1428C65.9014 12.4642 65.8306 12.7857 65.689 13.0714L64.7334 15.0714C64.0609 16.4999 63.07 16.6071 60.9818 16.6071H56.0977L57.124 14.4999H60.4509C61.3711 14.4999 61.7958 14.4999 62.0436 13.8928L62.2913 13.3928C62.3621 13.2857 62.3975 13.1428 62.3975 13.0357C62.3975 12.6071 61.8312 12.4999 60.8048 12.1785C59.4953 11.7499 58.8583 11.5357 58.8583 10.8928C58.8583 10.6071 58.9644 10.3214 59.106 10.0357L60.0262 8.17853C60.4509 7.28568 61.2296 7.14282 62.5745 7.14282H66.9985L65.9368 9.1071Z" fill="black"/>
<path d="M82.2877 7.03589C83.0309 7.03589 83.491 7.39303 83.491 8.00017C83.491 8.14303 83.4556 8.28588 83.4202 8.42874L80.8366 16.5358H69.6172L75.0322 10.5716H78.7838L75.5277 14.4644H77.7928L79.4209 9.64302C79.4563 9.57159 79.4563 9.53588 79.4563 9.46445C79.4563 9.28588 79.2793 9.14302 79.0316 9.14302H75.6693L76.6957 7.0716L82.2877 7.03589Z" fill="black"/>
<path d="M91.5244 15.143C90.9581 16.2858 90.2148 16.5358 88.7284 16.5358H84.092C83.1364 16.5358 82.6055 16.1073 82.6055 15.5001C82.6055 15.2859 82.6763 15.0716 82.7824 14.893L86.711 7.03589H90.3564L86.9941 13.7501C86.9233 13.8573 86.9233 13.9287 86.9233 14.0359C86.9233 14.2859 87.1357 14.4287 87.5604 14.4287C87.9851 14.4287 88.339 14.2144 88.516 13.8216L91.9137 7.03589H95.5591L91.5244 15.143Z" fill="black"/>
<path d="M97.9306 16.5363H94.2852L98.0014 9.14344H95.3115L96.3379 7.07202H105.044L104.018 9.14344H101.647L97.9306 16.5363Z" fill="black"/>
<path d="M110.673 15.143C110.107 16.2858 109.363 16.5358 107.877 16.5358H103.24C102.285 16.5358 101.754 16.1073 101.754 15.5001C101.754 15.2859 101.825 15.0716 101.931 14.893L105.152 8.42874C105.753 7.25017 106.461 7.03589 107.948 7.03589H112.584C113.54 7.03589 114.07 7.46446 114.07 8.0716C114.07 8.28588 114 8.50017 113.893 8.67874L110.673 15.143ZM109.788 9.53588C109.788 9.28588 109.576 9.10731 109.186 9.10731C108.762 9.07159 108.337 9.32159 108.16 9.71445L106.143 13.7859C106.107 13.8573 106.072 13.9644 106.072 14.0359C106.072 14.2859 106.284 14.4287 106.744 14.4287C107.134 14.4287 107.523 14.2144 107.664 13.8216L109.717 9.75016C109.753 9.67873 109.788 9.60731 109.788 9.53588Z" fill="black"/>
<path d="M87.2084 19.5723H87.7039L87.2438 21.7151C87.2084 21.8937 87.173 22.0365 87.173 22.108C87.173 22.2865 87.2438 22.4294 87.4207 22.5723C87.5623 22.6794 87.7747 22.7508 88.0224 22.7508C88.1994 22.7508 88.3763 22.7151 88.5533 22.6437C88.7303 22.5723 88.8364 22.4294 88.9426 22.2865C89.0488 22.1437 89.1196 21.8937 89.1904 21.5365L89.6151 19.6437H90.1106L89.6505 21.6794C89.5797 22.0365 89.4735 22.2865 89.3319 22.5008C89.1904 22.7151 89.0488 22.858 88.801 23.0008C88.5887 23.108 88.3055 23.1794 88.0224 23.1794C87.7393 23.1794 87.4915 23.1437 87.3146 23.0365C87.1022 22.9651 86.9606 22.8223 86.8545 22.6794C86.7483 22.5365 86.7129 22.358 86.7129 22.1437C86.7129 22.0365 86.7483 21.8223 86.8191 21.5008L87.2084 19.5723Z" fill="#4977C5"/>
<path d="M90.1465 23.0361L90.9251 19.5718H91.4206L91.0667 21.2503L93.0487 19.5718H93.7565L92.0577 20.9646L93.2964 23.0003H92.7655L91.7038 21.2503L90.9251 21.8932L90.6774 23.0003H90.1465V23.0361Z" fill="#4977C5"/>
<path d="M93.5781 23.0361L94.3568 19.5718H95.914C96.2326 19.5718 96.4449 19.6075 96.6219 19.6432C96.7988 19.6789 96.905 19.7861 96.9758 19.9289C97.082 20.0718 97.1174 20.2146 97.1174 20.4289C97.1174 20.7146 97.0112 20.9289 96.8342 21.1432C96.6219 21.3218 96.3387 21.4646 95.8786 21.5003C96.0202 21.6075 96.1264 21.6789 96.1972 21.7861C96.3387 22.0003 96.4803 22.2146 96.5511 22.4289L96.8342 23.0718H96.3033L96.0556 22.4289C95.9494 22.1789 95.8432 22.0003 95.7371 21.8218C95.6663 21.7146 95.5601 21.6432 95.4893 21.5718C95.4185 21.5361 95.277 21.5003 95.0646 21.5003H94.4983L94.1444 23.0361H93.5781ZM94.4983 21.1075H95.1708C95.4893 21.1075 95.7017 21.1075 95.7725 21.1075C95.9494 21.1075 96.1264 21.0361 96.2326 21.0003C96.3387 20.9646 96.4449 20.8575 96.5157 20.7503C96.5865 20.6432 96.6219 20.5361 96.6219 20.4289C96.6219 20.3218 96.5865 20.2503 96.5511 20.1789C96.5157 20.1075 96.4449 20.0361 96.3741 20.0361C96.3033 20.0003 96.1618 20.0003 95.9848 20.0003H94.7815L94.4983 21.1075Z" fill="#4977C5"/>
<path d="M96.9414 23.0361L99.0296 19.5718H99.5958L100.198 23.0361H99.7374L99.5604 22.0361H98.074L97.4723 23.0361H96.9414ZM98.2509 21.6789H99.4543L99.3127 20.8218C99.2419 20.4646 99.2065 20.1789 99.2065 19.9646C99.1357 20.1789 98.9942 20.3932 98.8526 20.6789L98.2509 21.6789Z" fill="#4977C5"/>
<path d="M100.764 23.0361L101.542 19.5718H102.038L101.259 23.0361H100.764Z" fill="#4977C5"/>
<path d="M102.143 23.0361L102.921 19.5718H103.381L103.983 20.8575C104.16 21.2503 104.337 21.5718 104.443 21.8575C104.514 22.0003 104.585 22.2146 104.655 22.5003C104.691 22.2146 104.762 21.8932 104.832 21.6075L105.292 19.5718H105.788L105.009 23.0361H104.514L103.594 21.0361C103.417 20.6789 103.311 20.3575 103.204 20.1075C103.169 20.3218 103.134 20.6075 103.063 20.9289L102.603 23.0361H102.143Z" fill="#4977C5"/>
<path d="M105.824 23.0361L106.603 19.5718H109.257L109.186 19.9646H107.028L106.78 21.0361H108.868L108.797 21.4289H106.709L106.426 22.6432H108.726L108.656 23.0361H105.824Z" fill="#4977C5"/>
<path d="M12.3877 23.3219C6.47719 23.3219 1.69922 18.4648 1.69922 12.5362C1.69922 6.60768 6.47719 1.71484 12.3877 1.71484C18.2982 1.71484 23.0762 6.57197 23.0762 12.5005C23.0762 18.4291 18.2982 23.3219 12.3877 23.3219ZM12.3877 3.14341C7.25582 3.14341 3.11491 7.35768 3.11491 12.5005C3.11491 17.6791 7.29121 21.8576 12.3877 21.8576C17.4842 21.8576 21.6605 17.6433 21.6605 12.5005C21.6959 7.35768 17.5196 3.14341 12.3877 3.14341Z" fill="black"/>
<path d="M9.38007 7.67871C9.38007 7.67871 4.92063 9.89299 9.30928 12.9287C9.30928 12.9287 12.9547 15.7144 16.4232 12.7858C16.4232 12.7858 20.104 9.46442 15.9277 7.85728L15.8923 10.2501C15.8923 10.2501 13.4856 12.9287 9.41546 10.2858L9.38007 7.67871Z" fill="black"/>
<path d="M9.66353 8.92828C10.4068 9.49971 12.8134 11.1426 15.5741 9.14257C15.7156 9.03542 15.8218 8.85685 15.8218 8.67828V6.964C15.8572 6.74972 15.7864 6.49972 15.6094 6.35686C15.1847 5.99972 14.0522 5.46401 13.1674 6.10686C12.9196 6.21401 12.6719 6.21401 12.4241 6.07115C11.9286 5.74972 11.15 5.4283 9.73431 6.24972C9.55735 6.35686 9.45117 6.53543 9.45117 6.74972V8.464C9.45117 8.64257 9.52196 8.82114 9.66353 8.92828Z" fill="black"/>
<path d="M3.3976 15.9994C5.02565 15.5708 6.68909 15.2137 8.35254 14.9994C8.45871 14.9994 8.56489 14.928 8.60028 14.8566L9.13117 14.1066C9.13117 14.1066 9.37891 13.9637 9.34352 14.2137C9.09577 14.5351 8.95421 14.928 8.9896 15.3565C8.9896 15.428 8.9896 15.4637 9.02499 15.4994L11.1131 19.9637C11.1485 20.0351 11.2193 20.0351 11.2547 20.0351C11.2901 20.0351 11.3255 19.9994 11.3255 19.9637L11.8564 17.4637C11.8918 17.3565 11.8564 17.2494 11.7856 17.1423C11.6086 16.8923 11.3609 16.428 12.4227 16.428C12.4227 16.428 13.626 16.3565 13.0951 17.1065C13.0597 17.178 13.0243 17.2851 13.0243 17.3565L13.2721 20.0708C13.2721 20.1065 13.3075 20.1422 13.3783 20.1422C13.4136 20.1422 13.449 20.1065 13.449 20.1065L15.9973 15.8565C16.0327 15.7851 16.0681 15.7137 16.0681 15.6065C16.0327 15.3208 15.9973 15.0351 15.8911 14.7494C15.8557 14.678 15.8557 14.6423 15.7849 14.6066C15.7495 14.5708 15.7142 14.4994 15.8557 14.4994C16.0681 14.7137 16.2804 14.9637 16.422 15.2494C16.4574 15.3565 16.5636 15.428 16.6697 15.428C17.3776 15.6065 20.032 16.2137 21.023 16.6423C21.2 16.7137 21.3061 16.928 21.2354 17.1065L20.5275 18.8565C20.4921 18.928 20.4567 18.9994 20.3859 19.0351L17.0591 21.2494L16.9883 21.2851L13.1305 22.8208C13.0597 22.8565 12.9889 22.8565 12.9182 22.8565L8.63567 21.9637C8.60028 21.9637 8.56489 21.9279 8.5295 21.9279L5.45036 19.9994C5.41497 19.9637 5.34418 19.928 5.34418 19.8922L3.18525 16.4994C3.18525 16.4994 3.18525 16.4637 3.14985 16.4637L2.9375 15.9994H3.3976Z" fill="black"/>
<path d="M15.9965 13.1434L15.8903 13.7506C15.8903 13.822 15.8549 13.9291 15.8195 14.0006L15.501 14.3577L13.9791 15.8934C13.8376 16.0363 13.6252 16.1077 13.4129 16.1077L11.6786 16.0363C11.4663 16.0363 11.2539 15.9291 11.1124 15.7505L9.27196 13.6077C9.20117 13.5006 9.20117 13.3934 9.20117 13.2506L9.23656 13.0006V12.9648C9.59049 13.1791 12.705 15.7505 15.9611 13.1077L15.9965 13.1434Z" fill="black"/>
</svg>
